{
	"asset":{
		"version":"2.0",
		"generator":"Created using the official Cinema 4D glTF Exporter 1.000x284978"
	},
	"scenes":[{
		"nodes":[0]
	}],
	"nodes":[{
		"name":"Capsule",
		"mesh":0
	}],
	"meshes":[{
		"name":"Capsule",
		"primitives":[{
			"attributes":{
				"POSITION":1,
				"NORMAL":2,
				"TEXCOORD_0":3
			},
			"indices":0
		}]
	}],
	"accessors":[{
		"bufferView":0,
		"type":"SCALAR",
		"componentType":5123,
		"count":180,
		"byteOffset":0,
		"min":[0],
		"max":[95]
	},
	{
		"bufferView":1,
		"type":"VEC3",
		"componentType":5126,
		"count":96,
		"byteOffset":0,
		"min":[-50.0,
		-100.0,
		-43.30126953125],
		"max":[50.0,
		100.0,
		43.30126953125]
	},
	{
		"bufferView":1,
		"type":"VEC3",
		"componentType":5126,
		"count":96,
		"byteOffset":12,
		"min":[-0.8660253882408142,
		-0.6546536684036255,
		-1.0],
		"max":[0.8660253882408142,
		0.6546536684036255,
		1.0]
	},
	{
		"bufferView":1,
		"type":"VEC2",
		"componentType":5126,
		"count":96,
		"byteOffset":24,
		"min":[0.0,
		0.0],
		"max":[1.0,
		1.0]
	}],
	"bufferViews":[{
		"buffer":0,
		"byteOffset":0,
		"byteLength":360,
		"target":34963
	},
	{
		"buffer":0,
		"byteOffset":360,
		"byteLength":3072,
		"target":34962,
		"byteStride":32
	}],
	"buffers":[{
		"uri":"data:application/octet-stream;base64,",
		"byteLength":3432
	}]
}